HIERARCHY
ROOT hip
{
  OFFSET 19.6706 83.1051 -22.4837
  CHANNELS 6 Xposition Yposition Zposition Zrotation Xrotation Yrotation
  JOINT abdomen
  {
    OFFSET 0 20.6881 -0.73152
    CHANNELS 3 Zrotation Xrotation Yrotation
    JOINT chest
    {
      OFFSET 0 11.7043 -0.48768
      CHANNELS 3 Zrotation Xrotation Yrotation
      JOINT neck
      {
        OFFSET 0 22.1894 -2.19456
        CHANNELS 3 Zrotation Xrotation Yrotation
        JOINT head
        {
          OFFSET -0.24384 7.07133 1.2192
          CHANNELS 3 Zrotation Xrotation Yrotation
          JOINT leftEye
          {
            OFFSET 4.14528 8.04674 8.04672
            CHANNELS 3 Zrotation Xrotation Yrotation
            End Site
            {
              OFFSET 1 0 0
            }
          }
          JOINT rightEye
          {
            OFFSET -3.6576 8.04674 8.04672
            CHANNELS 3 Zrotation Xrotation Yrotation
            End Site
            {
              OFFSET 1 0 0
            }
          }
        }
      }
      JOINT rCollar
      {
        OFFSET -2.68224 19.2634 -4.8768
        CHANNELS 3 Zrotation Xrotation Yrotation
        JOINT rShldr
        {
          OFFSET -8.77824 -1.95073 1.46304
          CHANNELS 3 Zrotation Xrotation Yrotation
          JOINT rForeArm
          {
            OFFSET -28.1742 -1.7115 0.48768
            CHANNELS 3 Zrotation Xrotation Yrotation
            JOINT rHand
            {
              OFFSET -22.5879 0.773209 7.07136
              CHANNELS 3 Zrotation Xrotation Yrotation
              JOINT rThumb1
              {
                OFFSET -1.2192 -0.487915 3.41376
                CHANNELS 3 Zrotation Xrotation Yrotation
                JOINT rThumb2
                {
                  OFFSET -3.37035 -0.52449 3.41376
                  CHANNELS 3 Zrotation Xrotation Yrotation
                  End Site
                  {
                    OFFSET -1.78271 -1.18214 1.43049
                  }
                }
              }
              JOINT rIndex1
              {
                OFFSET -7.75947 0.938293 5.60832
                CHANNELS 3 Zrotation Xrotation Yrotation
                JOINT rIndex2
                {
                  OFFSET -2.54057 -0.884171 1.56538
                  CHANNELS 3 Zrotation Xrotation Yrotation
                  End Site
                  {
                    OFFSET -1.62519 -0.234802 1.16502
                  }
                }
              }
              JOINT rMid1
              {
                OFFSET -8.24714 1.18213 3.41376
                CHANNELS 3 Zrotation Xrotation Yrotation
                JOINT rMid2
                {
                  OFFSET -3.10165 -0.590103 1.0647
                  CHANNELS 3 Zrotation Xrotation Yrotation
                  End Site
                  {
                    OFFSET -2.48547 -0.328903 0.83742
                  }
                }
              }
              JOINT rRing1
              {
                OFFSET -8.82822 0.546677 1.51678
                CHANNELS 3 Zrotation Xrotation Yrotation
                JOINT rRing2
                {
                  OFFSET -2.60934 -0.819778 -0.0198488
                  CHANNELS 3 Zrotation Xrotation Yrotation
                  End Site
                  {
                    OFFSET -2.33842 -0.294052 0.168128
                  }
                }
              }
              JOINT rPinky1
              {
                OFFSET -8.27202 -0.0477905 -0.4584
                CHANNELS 3 Zrotation Xrotation Yrotation
                JOINT rPinky2
                {
                  OFFSET -1.82734 -0.647385 -0.700984
                  CHANNELS 3 Zrotation Xrotation Yrotation
                  End Site
                  {
                    OFFSET -1.69225 -0.51767 -0.607171
                  }
                }
              }
            }
          }
        }
      }
      JOINT lCollar
      {
        OFFSET 2.68224 19.2634 -4.8768
        CHANNELS 3 Zrotation Xrotation Yrotation
        JOINT lShldr
        {
          OFFSET 8.77824 -1.95073 1.46304
          CHANNELS 3 Zrotation Xrotation Yrotation
          JOINT lForeArm
          {
            OFFSET 28.1742 -1.7115 0.48768
            CHANNELS 3 Zrotation Xrotation Yrotation
            JOINT lHand
            {
              OFFSET 22.5879 0.773209 7.07136
              CHANNELS 3 Zrotation Xrotation Yrotation
              JOINT lThumb1
              {
                OFFSET 1.2192 -0.487915 3.41376
                CHANNELS 3 Zrotation Xrotation Yrotation
                JOINT lThumb2
                {
                  OFFSET 3.37035 -0.52449 3.41376
                  CHANNELS 3 Zrotation Xrotation Yrotation
                  End Site
                  {
                    OFFSET 1.78271 -1.18214 1.43049
                  }
                }
              }
              JOINT lIndex1
              {
                OFFSET 7.75947 0.938293 5.60832
                CHANNELS 3 Zrotation Xrotation Yrotation
                JOINT lIndex2
                {
                  OFFSET 2.54057 -0.884171 1.56538
                  CHANNELS 3 Zrotation Xrotation Yrotation
                  End Site
                  {
                    OFFSET 1.62519 -0.234802 1.16502
                  }
                }
              }
              JOINT lMid1
              {
                OFFSET 8.24714 1.18213 3.41376
                CHANNELS 3 Zrotation Xrotation Yrotation
                JOINT lMid2
                {
                  OFFSET 3.10165 -0.590103 1.0647
                  CHANNELS 3 Zrotation Xrotation Yrotation
                  End Site
                  {
                    OFFSET 2.48547 -0.328903 0.83742
                  }
                }
              }
              JOINT lRing1
              {
                OFFSET 8.82822 0.546677 1.51678
                CHANNELS 3 Zrotation Xrotation Yrotation
                JOINT lRing2
                {
                  OFFSET 2.60934 -0.819778 -0.0198488
                  CHANNELS 3 Zrotation Xrotation Yrotation
                  End Site
                  {
                    OFFSET 2.33842 -0.294052 0.168128
                  }
                }
              }
              JOINT lPinky1
              {
                OFFSET 8.27202 -0.0477905 -0.4584
                CHANNELS 3 Zrotation Xrotation Yrotation
                JOINT lPinky2
                {
                  OFFSET 1.82734 -0.647385 -0.700984
                  CHANNELS 3 Zrotation Xrotation Yrotation
                  End Site
                  {
                    OFFSET 1.69225 -0.51767 -0.607171
                  }
                }
              }
            }
          }
        }
      }
    }
  }
  JOINT rButtock
  {
    OFFSET -8.77824 4.35084 1.2192
    CHANNELS 3 Zrotation Xrotation Yrotation
    JOINT rThigh
    {
      OFFSET 0 -1.70687 -2.19456
      CHANNELS 3 Zrotation Xrotation Yrotation
      JOINT rShin
      {
        OFFSET 0 -36.8199 0.73152
        CHANNELS 3 Zrotation Xrotation Yrotation
        JOINT rFoot
        {
          OFFSET 0.73152 -45.1104 -5.12064
          CHANNELS 3 Zrotation Xrotation Yrotation
          End Site
          {
            OFFSET -1.1221 -3.69964 12.103
          }
        }
      }
    }
  }
  JOINT lButtock
  {
    OFFSET 8.77824 4.35084 1.2192
    CHANNELS 3 Zrotation Xrotation Yrotation
    JOINT lThigh
    {
      OFFSET 0 -1.70687 -2.19456
      CHANNELS 3 Zrotation Xrotation Yrotation
      JOINT lShin
      {
        OFFSET 0 -36.8199 0.73152
        CHANNELS 3 Zrotation Xrotation Yrotation
        JOINT lFoot
        {
          OFFSET -0.73152 -45.1104 -5.12064
          CHANNELS 3 Zrotation Xrotation Yrotation
          End Site
          {
            OFFSET 1.1221 -3.69964 12.103
          }
        }
      }
    }
  }
}
MOTION
Frames:	4
Frame Time:	0.00833333
-17.7035 56.0216 -3.80928 18.6249 3.0297 -89.5217 7.00998 12.0552 -0.511965 4.44551 -19.9514 0.850091 -3.64949 -1.02091 1.81133 -23.4292 1.99382 3.38983 -0 0 0 -0 0 0 -5.39325e-014 3.94866e-013 -3.61986e-014 30.661 42.6645 8.25245 -15.1919 -7.97282 27.9554 -6.14414 -55.3057 -11.7057 -1.1266e-009 -8.43472e-010 3.17103e-010 -1.95472e-009 -1.36878e-009 5.01651e-010 -1.12659e-009 -8.43456e-010 3.17076e-010 7.73091 5.47488 0.417314 -1.1266e-009 -8.43473e-010 3.17103e-010 2.90554 0.965183 0.102902 -1.1266e-009 -8.43473e-010 3.17106e-010 10.2786 0.731801 0.0259123 -1.12661e-009 -8.43468e-010 3.17116e-010 2.22167 -0.733487 -0.20892 -5.39999e-014 3.9486e-013 -3.63112e-014 -58.063 -15.6236 -5.03047 12.6622 -5.92272 -22.9015 0.574806 -21.0875 3.10548 2.18273e-009 1.57822e-009 5.66863e-011 3.76882e-009 2.8165e-009 1.26175e-010 2.18272e-009 1.57821e-009 5.6691e-011 -7.73091 5.47488 -0.417314 2.18273e-009 1.57821e-009 5.66763e-011 -2.90554 0.965183 -0.102902 2.18272e-009 1.57822e-009 5.66811e-011 -10.2786 0.731801 -0.0259123 2.18273e-009 1.57822e-009 5.66717e-011 -2.22167 -0.733487 0.20892 -2.03217e-016 0 -3.88251e-019 74.215 -67.6663 65.7441 -19.62 86.9011 19.7883 0.81638 -26.8939 2.27802 2.03217e-016 0 3.88251e-019 -8.01714 -10.3136 -8.02266 0.930938 65.8579 -3.62364 -6.0608 4.44549 -20.443 
-17.9295 55.3154 -3.6395 18.3811 2.97826 -89.2216 6.91481 12.555 -0.517159 4.54134 -20.0213 0.886065 -3.82121 -1.07197 1.80002 -23.4703 2.18863 3.44104 -0 0 0 -0 0 0 -3.49522e-014 7.60227e-013 -7.81224e-014 31.8826 40.0946 4.29956 -14.3979 -7.28007 26.3581 -5.5552 -53.5738 -10.9786 -1.45845e-009 -7.87314e-010 4.04923e-010 -2.53143e-009 -1.20252e-009 6.38883e-010 -1.45844e-009 -7.87297e-010 4.04897e-010 7.73091 5.47488 0.417314 -1.45845e-009 -7.87316e-010 4.04926e-010 2.90554 0.965183 0.102902 -1.45845e-009 -7.87314e-010 4.04928e-010 10.2786 0.731801 0.0259123 -1.45846e-009 -7.87312e-010 4.04939e-010 2.22167 -0.733487 -0.20892 -3.50223e-014 7.60227e-013 -7.82715e-014 -56.3028 -19.3746 -3.11273 12.7218 -5.96791 -23.016 0.525777 -20.1581 2.95733 3.14497e-009 1.923e-009 -8.43992e-011 5.43511e-009 3.45366e-009 -1.04712e-010 3.14496e-009 1.92298e-009 -8.43928e-011 -7.73091 5.47488 -0.417314 3.14497e-009 1.92299e-009 -8.44087e-011 -2.90554 0.965183 -0.102902 3.14497e-009 1.923e-009 -8.44024e-011 -10.2786 0.731801 -0.0259123 3.14497e-009 1.923e-009 -8.44119e-011 -2.22167 -0.733487 0.20892 -2.03217e-016 0 -3.88251e-019 75.5485 -67.9341 66.9566 -36.3318 88.1979 36.4968 0.881792 -27.2299 2.42267 2.03217e-016 0 3.88251e-019 -8.21446 -10.2789 -7.90033 1.00116 66.9314 -3.75234 -6.04595 4.45619 -20.4546 
-18.2006 54.6206 -3.43275 18.1931 2.82007 -88.8551 6.68733 12.9301 -0.536663 4.62288 -20.1554 0.912083 -3.9742 -1.06885 1.77785 -23.634 2.45477 3.46349 -0 0 0 -0 0 0 -2.89882e-014 8.72322e-013 -8.82666e-014 32.7698 37.0954 0.495576 -13.7528 -6.73638 25.1059 -5.12874 -52.1892 -10.4408 -1.57781e-009 -9.43877e-011 1.66501e-010 -2.72878e-009 2.42641e-011 2.23073e-010 -1.5778e-009 -9.43734e-011 1.66481e-010 7.73091 5.47488 0.417314 -1.57781e-009 -9.43842e-011 1.66506e-010 2.90554 0.965183 0.102902 -1.57781e-009 -9.43882e-011 1.66507e-010 10.2786 0.731801 0.0259123 -1.57782e-009 -9.43866e-011 1.66517e-010 2.22167 -0.733487 -0.20892 -2.90737e-014 8.72328e-013 -8.84588e-014 -54.1823 -22.3031 -1.14899 12.8136 -6.03645 -23.1949 0.532841 -20.2113 2.96735 3.40781e-009 2.4173e-009 -1.70805e-010 5.89254e-009 4.34074e-009 -2.49193e-010 3.40781e-009 2.41728e-009 -1.70797e-010 -7.73091 5.47488 -0.417314 3.40781e-009 2.41729e-009 -1.70813e-010 -2.90554 0.965183 -0.102902 3.40781e-009 2.4173e-009 -1.70808e-010 -10.2786 0.731801 -0.0259123 3.40781e-009 2.4173e-009 -1.70817e-010 -2.22167 -0.733487 0.20892 -2.03217e-016 0 -3.88251e-019 76.7966 -68.3213 68.156 -86.5526 88.9056 86.7198 0.731428 -27.8087 2.00735 2.03217e-016 0 3.88251e-019 -8.50347 -10.1929 -7.79236 1.07885 67.9605 -3.87968 -6.11228 4.19448 -20.5313 
-18.4838 53.952 -3.20514 18.0402 2.56254 -88.4746 6.36356 13.2046 -0.566663 4.69443 -20.328 0.930043 -4.11524 -1.04616 1.74888 -23.8701 2.78007 3.47194 -0 0 0 -0 0 0 -3.01114e-014 8.50935e-013 -8.06196e-014 33.2609 33.7162 -3.13152 -13.253 -6.34734 24.1085 -4.79543 -51.0362 -10.0147 -1.58049e-009 1.02843e-009 -2.87611e-010 -2.71627e-009 1.97243e-009 -5.59451e-010 -1.58049e-009 1.02844e-009 -2.87624e-010 7.73091 5.47488 0.417314 -1.58049e-009 1.02844e-009 -2.87605e-010 2.90554 0.965183 0.102902 -1.58049e-009 1.02843e-009 -2.87605e-010 10.2786 0.731801 0.0259123 -1.5805e-009 1.02843e-009 -2.87597e-010 2.22167 -0.733487 -0.20892 -3.02218e-014 8.50946e-013 -8.0865e-014 -51.8205 -24.6267 0.867419 12.9498 -6.13838 -23.4624 0.578607 -20.9835 3.09204 3.25295e-009 3.02179e-009 -2.29323e-010 5.62816e-009 5.41479e-009 -3.50407e-010 3.25295e-009 3.02177e-009 -2.29314e-010 -7.73091 5.47488 -0.417314 3.25295e-009 3.02179e-009 -2.29328e-010 -2.90554 0.965183 -0.102902 3.25295e-009 3.02179e-009 -2.29326e-010 -10.2786 0.731801 -0.0259123 3.25295e-009 3.02179e-009 -2.29336e-010 -2.22167 -0.733487 0.20892 -2.03217e-016 0 -3.88251e-019 77.9462 -68.7759 69.3171 -138.347 88.3205 138.523 0.418886 -28.551 1.21439 2.03217e-016 0 3.88251e-019 -8.85955 -10.0485 -7.67493 1.15722 68.9242 -3.99895 -6.21878 3.75594 -20.5877 
